<svg xmlns="http://www.w3.org/2000/svg" viewBox="0 0 1600 900" role="img" aria-labelledby="title desc">
  <title id="title">ABC4RD preview</title>
  <desc id="desc">Text-free thematic preview image.</desc>
  <defs>
    <linearGradient id="bg" x1="0" y1="0" x2="1" y2="1">
      <stop offset="0%" stop-color="#111827"/>
      <stop offset="52%" stop-color="#1d4ed8"/>
      <stop offset="100%" stop-color="#22c55e"/>
    </linearGradient>
    <filter id="shadow" x="-20%" y="-20%" width="140%" height="140%">
      <feDropShadow dx="0" dy="18" stdDeviation="28" flood-color="#020617" flood-opacity="0.34"/>
    </filter>
  </defs>
  <rect width="1600" height="900" fill="url(#bg)"/>
  <g opacity="0.12" fill="#86efac">
    <circle cx="220" cy="160" r="100"/>
    <circle cx="1370" cy="170" r="120"/>
    <circle cx="1310" cy="760" r="110"/>
  </g>
  <g filter="url(#shadow)">
    <rect x="170" y="120" width="1260" height="660" rx="44" fill="#f8fafc" opacity="0.96"/>
  </g>
  <g stroke="#1d4ed8" stroke-width="16" fill="none">
    <path d="M360 610 L560 470 L760 520 L960 360 L1160 430 L1260 280"/>
    <path d="M360 300 L460 240 L660 330 L830 210 L1030 270 L1230 190"/>
  </g>
  <g fill="#22c55e">
    <circle cx="360" cy="610" r="24"/>
    <circle cx="560" cy="470" r="24"/>
    <circle cx="760" cy="520" r="24"/>
    <circle cx="960" cy="360" r="24"/>
    <circle cx="1160" cy="430" r="24"/>
    <circle cx="1260" cy="280" r="24"/>
  </g>
  <g fill="#0f172a">
    <rect x="350" y="620" width="920" height="24" rx="12"/>
    <rect x="350" y="670" width="740" height="24" rx="12"/>
  </g>
</svg>
