<svg xmlns="http://www.w3.org/2000/svg" viewBox="0 0 1600 900" role="img" aria-labelledby="title desc">
  <title id="title">ABC4RD preview</title>
  <desc id="desc">Text-free thematic preview image.</desc>
  <defs>
    <linearGradient id="bg" x1="0" y1="0" x2="1" y2="1">
      <stop offset="0%" stop-color="#0f172a"/>
      <stop offset="55%" stop-color="#134e4a"/>
      <stop offset="100%" stop-color="#164e63"/>
    </linearGradient>
    <filter id="shadow" x="-20%" y="-20%" width="140%" height="140%">
      <feDropShadow dx="0" dy="18" stdDeviation="28" flood-color="#020617" flood-opacity="0.34"/>
    </filter>
  </defs>
  <rect width="1600" height="900" fill="url(#bg)"/>
  <g opacity="0.16" fill="#99f6e4">
    <circle cx="250" cy="180" r="120"/>
    <circle cx="1290" cy="170" r="110"/>
    <circle cx="1360" cy="690" r="130"/>
  </g>
  <g filter="url(#shadow)">
    <rect x="170" y="120" width="1260" height="660" rx="44" fill="#f8fafc" opacity="0.96"/>
  </g>
  <path d="M800 200l250 90v140c0 150-110 276-250 326C660 706 550 580 550 430V290l250-90z" fill="#e2e8f0"/>
  <path d="M800 250l190 68v111c0 113-80 209-190 251-110-42-190-138-190-251V318l190-68z" fill="#d1fae5"/>
  <rect x="720" y="355" width="160" height="170" rx="26" fill="#0f766e"/>
  <path d="M740 355c0-34 27-61 60-61s60 27 60 61v28h-42v-25c0-10-8-18-18-18s-18 8-18 18v25h-42v-28z" fill="#99f6e4"/>
  <circle cx="800" cy="438" r="24" fill="#f8fafc"/>
  <rect x="786" y="438" width="28" height="54" rx="14" fill="#f8fafc"/>
  <g opacity="0.9">
    <rect x="300" y="270" width="160" height="18" rx="9" fill="#bfdbfe"/>
    <rect x="1140" y="270" width="160" height="18" rx="9" fill="#bfdbfe"/>
    <rect x="280" y="350" width="170" height="120" rx="24" fill="#e0f2fe"/>
    <rect x="1150" y="350" width="170" height="120" rx="24" fill="#e0f2fe"/>
    <rect x="280" y="530" width="170" height="90" rx="24" fill="#cffafe"/>
    <rect x="1150" y="530" width="170" height="90" rx="24" fill="#cffafe"/>
  </g>
</svg>
