<svg xmlns="http://www.w3.org/2000/svg" viewBox="0 0 1600 900" role="img" aria-labelledby="title desc">
  <title id="title">ABC4RD preview</title>
  <desc id="desc">Text-free thematic preview image.</desc>
  <defs>
    <linearGradient id="bg" x1="0" y1="0" x2="1" y2="1">
      <stop offset="0%" stop-color="#082f49"/>
      <stop offset="55%" stop-color="#0f766e"/>
      <stop offset="100%" stop-color="#f59e0b"/>
    </linearGradient>
    <filter id="shadow" x="-20%" y="-20%" width="140%" height="140%">
      <feDropShadow dx="0" dy="18" stdDeviation="28" flood-color="#04111d" flood-opacity="0.32"/>
    </filter>
  </defs>
  <rect width="1600" height="900" fill="url(#bg)"/>
  <g opacity="0.14" fill="#fef3c7">
    <circle cx="250" cy="180" r="110"/>
    <circle cx="1320" cy="170" r="125"/>
    <circle cx="1330" cy="720" r="120"/>
  </g>
  <g filter="url(#shadow)">
    <rect x="180" y="120" width="1240" height="660" rx="44" fill="#f8fafc" opacity="0.95"/>
  </g>
  <g fill="#0f766e">
    <circle cx="430" cy="450" r="92"/>
    <circle cx="810" cy="300" r="92"/>
    <circle cx="1190" cy="450" r="92"/>
  </g>
  <g fill="#99f6e4">
    <rect x="370" y="405" width="120" height="90" rx="16"/>
    <rect x="750" y="255" width="120" height="90" rx="16"/>
    <rect x="1130" y="405" width="120" height="90" rx="16"/>
  </g>
  <g stroke="#f59e0b" stroke-width="18" fill="none" stroke-linecap="round">
    <path d="M490 410 710 325"/>
    <path d="M910 325 1130 410"/>
    <path d="M500 510 1120 510"/>
  </g>
  <g fill="#f59e0b">
    <circle cx="520" cy="510" r="18"/>
    <circle cx="810" cy="510" r="18"/>
    <circle cx="1100" cy="510" r="18"/>
  </g>
  <g fill="#164e63">
    <rect x="590" y="585" width="440" height="26" rx="13"/>
    <rect x="640" y="635" width="340" height="26" rx="13"/>
  </g>
</svg>
