<svg xmlns="http://www.w3.org/2000/svg" viewBox="0 0 1600 900" role="img" aria-labelledby="title desc">
  <title id="title">ABC4RD mining ranking preview</title>
  <desc id="desc">A text-free abstract image suggesting hash grids, compute racks, and mining operations.</desc>
  <defs>
    <linearGradient id="bg" x1="0" y1="0" x2="1" y2="1">
      <stop offset="0%" stop-color="#111827"/>
      <stop offset="45%" stop-color="#1f2937"/>
      <stop offset="100%" stop-color="#0f766e"/>
    </linearGradient>
    <filter id="shadow" x="-20%" y="-20%" width="140%" height="140%">
      <feDropShadow dx="0" dy="18" stdDeviation="28" flood-color="#020617" flood-opacity="0.38"/>
    </filter>
  </defs>
  <rect width="1600" height="900" fill="url(#bg)"/>
  <g opacity="0.14" fill="#67e8f9">
    <rect x="120" y="160" width="140" height="560" rx="22"/>
    <rect x="300" y="130" width="120" height="620" rx="22"/>
    <rect x="450" y="200" width="170" height="480" rx="22"/>
    <rect x="675" y="150" width="130" height="570" rx="22"/>
    <rect x="845" y="220" width="160" height="430" rx="22"/>
    <rect x="1060" y="170" width="135" height="520" rx="22"/>
    <rect x="1230" y="210" width="180" height="440" rx="22"/>
  </g>
  <g filter="url(#shadow)">
    <rect x="140" y="110" width="1320" height="620" rx="38" fill="#f8fafc" opacity="0.93"/>
  </g>
  <g opacity="0.92">
    <rect x="220" y="210" width="340" height="44" rx="22" fill="#dbeafe"/>
    <rect x="220" y="285" width="1040" height="110" rx="28" fill="#eff6ff"/>
    <rect x="260" y="325" width="150" height="30" rx="15" fill="#99f6e4"/>
    <rect x="445" y="325" width="150" height="30" rx="15" fill="#bfdbfe"/>
    <rect x="630" y="325" width="150" height="30" rx="15" fill="#fde68a"/>
    <rect x="815" y="325" width="150" height="30" rx="15" fill="#fbcfe8"/>
    <rect x="1000" y="325" width="150" height="30" rx="15" fill="#ddd6fe"/>
    <rect x="220" y="455" width="1180" height="38" rx="19" fill="#e2e8f0"/>
    <rect x="220" y="520" width="980" height="34" rx="17" fill="#cbd5e1"/>
    <rect x="220" y="580" width="860" height="34" rx="17" fill="#d1fae5"/>
  </g>
  <g opacity="0.22" stroke="#0f766e" stroke-width="6">
    <line x1="230" y1="748" x2="1380" y2="748"/>
    <line x1="260" y1="788" x2="1320" y2="788"/>
  </g>
</svg>
