<svg xmlns="http://www.w3.org/2000/svg" viewBox="0 0 1600 900" role="img" aria-labelledby="title desc">
  <title id="title">ABC4RD protocols ranking preview</title>
  <desc id="desc">A text-free abstract image suggesting protocol layers, validator routes, and signal pathways.</desc>
  <defs>
    <linearGradient id="bg" x1="0" y1="0" x2="1" y2="1">
      <stop offset="0%" stop-color="#08111f"/>
      <stop offset="55%" stop-color="#12243a"/>
      <stop offset="100%" stop-color="#0f766e"/>
    </linearGradient>
    <linearGradient id="panel" x1="0" y1="0" x2="1" y2="1">
      <stop offset="0%" stop-color="#1d4ed8"/>
      <stop offset="100%" stop-color="#0891b2"/>
    </linearGradient>
    <filter id="shadow" x="-20%" y="-20%" width="140%" height="140%">
      <feDropShadow dx="0" dy="18" stdDeviation="30" flood-color="#06101d" flood-opacity="0.36"/>
    </filter>
  </defs>
  <rect width="1600" height="900" fill="url(#bg)"/>
  <g opacity="0.2" stroke="#93c5fd" stroke-width="3" fill="none">
    <path d="M120 690 C340 480 560 420 790 520 S1200 680 1480 520"/>
    <path d="M170 255 C420 120 710 160 980 250 S1320 420 1450 330"/>
    <path d="M250 770 C420 620 600 570 820 610 S1160 760 1410 710"/>
  </g>
  <g fill="#dbeafe" opacity="0.9">
    <circle cx="122" cy="689" r="14"/>
    <circle cx="345" cy="482" r="11"/>
    <circle cx="790" cy="520" r="17"/>
    <circle cx="1200" cy="680" r="12"/>
    <circle cx="1480" cy="520" r="15"/>
    <circle cx="170" cy="255" r="12"/>
    <circle cx="425" cy="140" r="10"/>
    <circle cx="715" cy="162" r="14"/>
    <circle cx="980" cy="250" r="11"/>
    <circle cx="1450" cy="330" r="13"/>
  </g>
  <g filter="url(#shadow)">
    <rect x="120" y="110" width="1010" height="530" rx="34" fill="#f8fbff" opacity="0.96"/>
    <rect x="1045" y="160" width="360" height="220" rx="28" fill="url(#panel)" opacity="0.94"/>
    <rect x="1045" y="420" width="360" height="170" rx="28" fill="#0f172a" opacity="0.84"/>
  </g>
  <g opacity="0.9">
    <rect x="190" y="185" width="540" height="18" rx="9" fill="#dbeafe"/>
    <rect x="190" y="230" width="410" height="16" rx="8" fill="#bfdbfe"/>
    <rect x="190" y="300" width="720" height="92" rx="22" fill="#eff6ff"/>
    <rect x="210" y="332" width="165" height="28" rx="14" fill="#c7d2fe"/>
    <rect x="400" y="332" width="165" height="28" rx="14" fill="#99f6e4"/>
    <rect x="590" y="332" width="165" height="28" rx="14" fill="#fde68a"/>
    <rect x="190" y="438" width="770" height="26" rx="13" fill="#e0f2fe"/>
    <rect x="190" y="482" width="610" height="22" rx="11" fill="#ccfbf1"/>
    <rect x="190" y="522" width="690" height="22" rx="11" fill="#dbeafe"/>
  </g>
</svg>
