<svg xmlns="http://www.w3.org/2000/svg" viewBox="0 0 1600 900" role="img" aria-labelledby="title desc">
  <title id="title">ABC4RD preview</title>
  <desc id="desc">Text-free thematic preview image.</desc>
  <defs>
    <linearGradient id="bg" x1="0" y1="0" x2="1" y2="1">
      <stop offset="0%" stop-color="#111827"/>
      <stop offset="50%" stop-color="#0f766e"/>
      <stop offset="100%" stop-color="#0369a1"/>
    </linearGradient>
    <filter id="shadow" x="-20%" y="-20%" width="140%" height="140%">
      <feDropShadow dx="0" dy="18" stdDeviation="28" flood-color="#020617" flood-opacity="0.34"/>
    </filter>
  </defs>
  <rect width="1600" height="900" fill="url(#bg)"/>
  <g opacity="0.14" fill="#99f6e4">
    <circle cx="220" cy="180" r="100"/>
    <circle cx="1340" cy="200" r="120"/>
    <circle cx="1240" cy="760" r="110"/>
  </g>
  <g filter="url(#shadow)">
    <rect x="150" y="120" width="1300" height="660" rx="44" fill="#f8fafc" opacity="0.96"/>
  </g>
  <g stroke="#0891b2" stroke-width="16" fill="none" stroke-linecap="round">
    <path d="M470 280h660"/>
    <path d="M470 620h660"/>
    <path d="M360 450h220"/>
    <path d="M1020 450h220"/>
    <path d="M620 330l180 120 180-120"/>
    <path d="M620 570l180-120 180 120"/>
  </g>
  <g fill="#cffafe">
    <rect x="280" y="390" width="160" height="120" rx="24"/>
    <rect x="1160" y="390" width="160" height="120" rx="24"/>
    <rect x="720" y="200" width="160" height="120" rx="24"/>
    <rect x="720" y="580" width="160" height="120" rx="24"/>
    <rect x="560" y="360" width="160" height="120" rx="24"/>
    <rect x="880" y="360" width="160" height="120" rx="24"/>
  </g>
  <g fill="#0f172a">
    <rect x="320" y="432" width="80" height="18" rx="9"/>
    <rect x="1200" y="432" width="80" height="18" rx="9"/>
    <rect x="760" y="242" width="80" height="18" rx="9"/>
    <rect x="760" y="622" width="80" height="18" rx="9"/>
    <rect x="600" y="402" width="80" height="18" rx="9"/>
    <rect x="920" y="402" width="80" height="18" rx="9"/>
  </g>
</svg>
