<svg xmlns="http://www.w3.org/2000/svg" viewBox="0 0 1600 900" role="img" aria-labelledby="title desc">
  <title id="title">ABC4RD preview</title>
  <desc id="desc">Text-free thematic preview image.</desc>
  <defs>
    <linearGradient id="bg" x1="0" y1="0" x2="1" y2="1">
      <stop offset="0%" stop-color="#111827"/>
      <stop offset="50%" stop-color="#14532d"/>
      <stop offset="100%" stop-color="#0f766e"/>
    </linearGradient>
    <filter id="shadow" x="-20%" y="-20%" width="140%" height="140%">
      <feDropShadow dx="0" dy="18" stdDeviation="28" flood-color="#020617" flood-opacity="0.34"/>
    </filter>
  </defs>
  <rect width="1600" height="900" fill="url(#bg)"/>
  <g opacity="0.14" fill="#86efac">
    <circle cx="220" cy="180" r="100"/>
    <circle cx="1310" cy="180" r="130"/>
    <circle cx="1360" cy="720" r="110"/>
  </g>
  <g filter="url(#shadow)">
    <rect x="160" y="120" width="1280" height="660" rx="44" fill="#f8fafc" opacity="0.96"/>
  </g>
  <g fill="#dcfce7">
    <rect x="290" y="290" width="220" height="300" rx="28"/>
    <rect x="545" y="240" width="220" height="350" rx="28"/>
    <rect x="800" y="190" width="220" height="400" rx="28"/>
    <rect x="1055" y="265" width="220" height="325" rx="28"/>
  </g>
  <g fill="#166534">
    <circle cx="400" cy="430" r="48"/>
    <circle cx="655" cy="390" r="48"/>
    <circle cx="910" cy="350" r="48"/>
    <circle cx="1165" cy="420" r="48"/>
  </g>
  <g fill="#f8fafc">
    <rect x="350" y="408" width="100" height="44" rx="22"/>
    <rect x="605" y="368" width="100" height="44" rx="22"/>
    <rect x="860" y="328" width="100" height="44" rx="22"/>
    <rect x="1115" y="398" width="100" height="44" rx="22"/>
  </g>
</svg>
