<svg xmlns="http://www.w3.org/2000/svg" viewBox="0 0 1600 900" role="img" aria-labelledby="title desc">
  <title id="title">ABC4RD developer tools ranking preview</title>
  <desc id="desc">A text-free abstract image suggesting code surfaces, interfaces, and modular tooling blocks.</desc>
  <defs>
    <linearGradient id="bg" x1="0" y1="0" x2="1" y2="1">
      <stop offset="0%" stop-color="#0b1324"/>
      <stop offset="55%" stop-color="#1e293b"/>
      <stop offset="100%" stop-color="#0f766e"/>
    </linearGradient>
    <filter id="shadow" x="-20%" y="-20%" width="140%" height="140%">
      <feDropShadow dx="0" dy="18" stdDeviation="28" flood-color="#020617" flood-opacity="0.36"/>
    </filter>
  </defs>
  <rect width="1600" height="900" fill="url(#bg)"/>
  <g opacity="0.16">
    <rect x="120" y="140" width="280" height="220" rx="24" fill="#38bdf8"/>
    <rect x="450" y="140" width="360" height="150" rx="24" fill="#2563eb"/>
    <rect x="850" y="140" width="260" height="260" rx="24" fill="#14b8a6"/>
    <rect x="1160" y="140" width="260" height="180" rx="24" fill="#0ea5e9"/>
    <rect x="260" y="420" width="300" height="210" rx="24" fill="#1d4ed8"/>
    <rect x="620" y="360" width="260" height="280" rx="24" fill="#34d399"/>
    <rect x="930" y="460" width="390" height="170" rx="24" fill="#60a5fa"/>
  </g>
  <g filter="url(#shadow)">
    <rect x="150" y="110" width="1300" height="640" rx="36" fill="#f8fafc" opacity="0.95"/>
  </g>
  <g opacity="0.92">
    <rect x="230" y="195" width="520" height="22" rx="11" fill="#dbeafe"/>
    <rect x="230" y="240" width="410" height="18" rx="9" fill="#bfdbfe"/>
    <rect x="230" y="315" width="1000" height="120" rx="28" fill="#eff6ff"/>
    <rect x="260" y="356" width="150" height="26" rx="13" fill="#c7d2fe"/>
    <rect x="435" y="356" width="150" height="26" rx="13" fill="#99f6e4"/>
    <rect x="610" y="356" width="150" height="26" rx="13" fill="#fde68a"/>
    <rect x="785" y="356" width="150" height="26" rx="13" fill="#fbcfe8"/>
    <rect x="960" y="356" width="150" height="26" rx="13" fill="#ddd6fe"/>
    <rect x="230" y="492" width="1140" height="36" rx="18" fill="#e2e8f0"/>
    <rect x="230" y="552" width="920" height="30" rx="15" fill="#d1fae5"/>
    <rect x="230" y="604" width="760" height="30" rx="15" fill="#e0f2fe"/>
  </g>
</svg>
