<svg xmlns="http://www.w3.org/2000/svg" viewBox="0 0 1600 900" role="img" aria-labelledby="title desc">
  <title id="title">ABC4RD preview</title>
  <desc id="desc">Text-free thematic preview image.</desc>
  <defs>
    <linearGradient id="bg" x1="0" y1="0" x2="1" y2="1">
      <stop offset="0%" stop-color="#111827"/>
      <stop offset="50%" stop-color="#1d4ed8"/>
      <stop offset="100%" stop-color="#0f766e"/>
    </linearGradient>
    <filter id="shadow" x="-20%" y="-20%" width="140%" height="140%">
      <feDropShadow dx="0" dy="18" stdDeviation="28" flood-color="#020617" flood-opacity="0.34"/>
    </filter>
  </defs>
  <rect width="1600" height="900" fill="url(#bg)"/>
  <g opacity="0.14" fill="#bfdbfe">
    <circle cx="190" cy="150" r="100"/>
    <circle cx="1370" cy="190" r="135"/>
    <circle cx="1220" cy="760" r="100"/>
  </g>
  <g filter="url(#shadow)">
    <rect x="130" y="120" width="1340" height="660" rx="44" fill="#f8fafc" opacity="0.96"/>
  </g>
  <g stroke="#60a5fa" stroke-width="14" fill="none" opacity="0.9">
    <path d="M340 300h280"/>
    <path d="M980 300h280"/>
    <path d="M340 600h280"/>
    <path d="M980 600h280"/>
    <path d="M800 250v400"/>
    <path d="M620 300h360"/>
    <path d="M620 600h360"/>
    <path d="M450 390h700"/>
    <path d="M450 510h700"/>
  </g>
  <g fill="#0f172a">
    <rect x="300" y="250" width="170" height="100" rx="24"/>
    <rect x="1130" y="250" width="170" height="100" rx="24"/>
    <rect x="300" y="550" width="170" height="100" rx="24"/>
    <rect x="1130" y="550" width="170" height="100" rx="24"/>
    <rect x="680" y="210" width="240" height="140" rx="28"/>
    <rect x="680" y="480" width="240" height="180" rx="28"/>
  </g>
  <g fill="#e0f2fe">
    <rect x="328" y="280" width="114" height="16" rx="8"/>
    <rect x="1158" y="280" width="114" height="16" rx="8"/>
    <rect x="328" y="580" width="114" height="16" rx="8"/>
    <rect x="1158" y="580" width="114" height="16" rx="8"/>
    <rect x="718" y="250" width="164" height="18" rx="9"/>
    <rect x="718" y="290" width="124" height="14" rx="7"/>
    <rect x="718" y="520" width="164" height="18" rx="9"/>
    <rect x="718" y="560" width="164" height="18" rx="9"/>
    <rect x="718" y="600" width="120" height="14" rx="7"/>
  </g>
</svg>
