<svg xmlns="http://www.w3.org/2000/svg" viewBox="0 0 1600 900" role="img" aria-labelledby="title desc">
  <title id="title">ABC4RD preview</title>
  <desc id="desc">Text-free thematic preview image.</desc>
  <defs>
    <linearGradient id="bg" x1="0" y1="0" x2="1" y2="1">
      <stop offset="0%" stop-color="#111827"/>
      <stop offset="52%" stop-color="#1d4ed8"/>
      <stop offset="100%" stop-color="#f59e0b"/>
    </linearGradient>
    <filter id="shadow" x="-20%" y="-20%" width="140%" height="140%">
      <feDropShadow dx="0" dy="18" stdDeviation="28" flood-color="#020617" flood-opacity="0.34"/>
    </filter>
  </defs>
  <rect width="1600" height="900" fill="url(#bg)"/>
  <g opacity="0.13" fill="#fde68a">
    <circle cx="240" cy="170" r="104"/>
    <circle cx="1360" cy="170" r="118"/>
    <circle cx="1320" cy="740" r="112"/>
  </g>
  <g filter="url(#shadow)">
    <rect x="180" y="120" width="1240" height="660" rx="44" fill="#f8fafc" opacity="0.96"/>
  </g>
  <g stroke="#1d4ed8" stroke-width="18" fill="none" stroke-linecap="round">
    <path d="M360 650H1240"/>
    <path d="M460 570 630 500 800 470 970 380 1140 300"/>
  </g>
  <g fill="#f59e0b">
    <circle cx="460" cy="570" r="26"/>
    <circle cx="630" cy="500" r="26"/>
    <circle cx="800" cy="470" r="26"/>
    <circle cx="970" cy="380" r="26"/>
    <circle cx="1140" cy="300" r="26"/>
  </g>
  <g fill="#0f766e">
    <rect x="1110" y="240" width="92" height="38" rx="19"/>
    <rect x="740" y="705" width="120" height="28" rx="14"/>
  </g>
</svg>
