<svg xmlns="http://www.w3.org/2000/svg" viewBox="0 0 1600 900" role="img" aria-labelledby="title desc">
  <title id="title">Research Digest 2026-05-06 preview</title>
  <desc id="desc">A thematic preview showing multiple research tracks connected in one digest.</desc>
  <defs>
    <linearGradient id="bg" x1="0" y1="0" x2="1" y2="1">
      <stop offset="0%" stop-color="#0f172a"/>
      <stop offset="100%" stop-color="#134e4a"/>
    </linearGradient>
  </defs>
  <rect width="1600" height="900" fill="url(#bg)"/>
  <g font-family="Segoe UI, Arial, sans-serif">
    
    
    
  </g>
  <g fill="#e2e8f0" opacity="0.95">
    <rect x="120" y="420" width="220" height="120" rx="24"/><rect x="390" y="420" width="220" height="120" rx="24"/>
    <rect x="660" y="420" width="220" height="120" rx="24"/><rect x="930" y="420" width="220" height="120" rx="24"/>
    <rect x="1200" y="420" width="220" height="120" rx="24"/><rect x="255" y="590" width="220" height="120" rx="24"/>
    <rect x="525" y="590" width="220" height="120" rx="24"/><rect x="795" y="590" width="220" height="120" rx="24"/>
    <rect x="1065" y="590" width="220" height="120" rx="24"/>
  </g>
  <g font-family="Segoe UI, Arial, sans-serif" font-size="30" font-weight="700" fill="#17202a" text-anchor="middle">
    
    
    
  </g>
  <g stroke="#67e8f9" stroke-width="6" opacity="0.4" fill="none">
    <path d="M340 480 H390"/><path d="M610 480 H660"/><path d="M880 480 H930"/><path d="M1150 480 H1200"/>
    <path d="M500 540 V590"/><path d="M770 540 V590"/><path d="M1040 540 V590"/>
  </g>
</svg>

