<svg xmlns="http://www.w3.org/2000/svg" viewBox="0 0 1600 900" role="img" aria-labelledby="title desc">
  <title id="title">ABC4RD preview</title>
  <desc id="desc">Text-free thematic preview image.</desc>
  <defs>
    <linearGradient id="bg" x1="0" y1="0" x2="1" y2="1">
      <stop offset="0%" stop-color="#0f172a"/>
      <stop offset="55%" stop-color="#4c1d95"/>
      <stop offset="100%" stop-color="#7c2d12"/>
    </linearGradient>
    <filter id="shadow" x="-20%" y="-20%" width="140%" height="140%">
      <feDropShadow dx="0" dy="18" stdDeviation="28" flood-color="#020617" flood-opacity="0.34"/>
    </filter>
  </defs>
  <rect width="1600" height="900" fill="url(#bg)"/>
  <g opacity="0.15" fill="#fbcfe8">
    <circle cx="220" cy="170" r="105"/>
    <circle cx="1310" cy="180" r="120"/>
    <circle cx="1360" cy="730" r="110"/>
  </g>
  <g filter="url(#shadow)">
    <rect x="150" y="120" width="1300" height="660" rx="44" fill="#f8fafc" opacity="0.96"/>
  </g>
  <path d="M800 215l250 86v135c0 164-106 278-250 332C656 714 550 600 550 436V301l250-86z" fill="#e9d5ff"/>
  <path d="M692 454l73 73 143-173" fill="none" stroke="#7c3aed" stroke-linecap="round" stroke-linejoin="round" stroke-width="34"/>
  <g opacity="0.92">
    <rect x="260" y="250" width="190" height="120" rx="24" fill="#fee2e2"/>
    <rect x="1150" y="250" width="190" height="120" rx="24" fill="#fee2e2"/>
    <rect x="260" y="530" width="190" height="120" rx="24" fill="#fde68a"/>
    <rect x="1150" y="530" width="190" height="120" rx="24" fill="#fde68a"/>
    <rect x="305" y="286" width="100" height="14" rx="7" fill="#7f1d1d"/>
    <rect x="1195" y="286" width="100" height="14" rx="7" fill="#7f1d1d"/>
    <rect x="305" y="566" width="100" height="14" rx="7" fill="#854d0e"/>
    <rect x="1195" y="566" width="100" height="14" rx="7" fill="#854d0e"/>
  </g>
</svg>
