<svg xmlns="http://www.w3.org/2000/svg" viewBox="0 0 1600 900" role="img" aria-labelledby="title desc">
  <title id="title">ABC4RD preview</title>
  <desc id="desc">Text-free thematic preview image.</desc>
  <defs>
    <linearGradient id="bg" x1="0" y1="0" x2="1" y2="1">
      <stop offset="0%" stop-color="#111827"/>
      <stop offset="55%" stop-color="#0f766e"/>
      <stop offset="100%" stop-color="#0ea5e9"/>
    </linearGradient>
    <filter id="shadow" x="-20%" y="-20%" width="140%" height="140%">
      <feDropShadow dx="0" dy="18" stdDeviation="28" flood-color="#020617" flood-opacity="0.36"/>
    </filter>
  </defs>
  <rect width="1600" height="900" fill="url(#bg)"/>
  <g opacity="0.18" fill="#93c5fd">
    <circle cx="180" cy="220" r="70"/>
    <circle cx="490" cy="170" r="120"/>
    <circle cx="940" cy="250" r="170"/>
    <circle cx="1340" cy="200" r="90"/>
    <circle cx="290" cy="690" r="110"/>
    <circle cx="760" cy="700" r="140"/>
    <circle cx="1240" cy="650" r="120"/>
  </g>
  <g filter="url(#shadow)">
    <rect x="130" y="110" width="1340" height="640" rx="36" fill="#f8fafc" opacity="0.95"/>
  </g>
  <g opacity="0.93">
    <rect x="220" y="195" width="430" height="24" rx="12" fill="#dbeafe"/>
    <rect x="220" y="240" width="290" height="18" rx="9" fill="#bfdbfe"/>
    <rect x="220" y="315" width="1140" height="118" rx="26" fill="#eff6ff"/>
    <rect x="260" y="357" width="150" height="28" rx="14" fill="#c7d2fe"/>
    <rect x="440" y="357" width="150" height="28" rx="14" fill="#99f6e4"/>
    <rect x="620" y="357" width="150" height="28" rx="14" fill="#fde68a"/>
    <rect x="800" y="357" width="150" height="28" rx="14" fill="#fbcfe8"/>
    <rect x="980" y="357" width="150" height="28" rx="14" fill="#ddd6fe"/>
    <rect x="220" y="500" width="1160" height="38" rx="19" fill="#e2e8f0"/>
    <rect x="220" y="565" width="960" height="32" rx="16" fill="#d1fae5"/>
    <rect x="220" y="620" width="780" height="30" rx="15" fill="#e0f2fe"/>
  </g>
</svg>
