<svg xmlns="http://www.w3.org/2000/svg" viewBox="0 0 1600 900" role="img" aria-labelledby="title desc">
  <title id="title">ABC4RD preview</title>
  <desc id="desc">Text-free thematic preview image.</desc>
  <defs>
    <linearGradient id="bg" x1="0" y1="0" x2="1" y2="1">
      <stop offset="0%" stop-color="#0f172a"/>
      <stop offset="50%" stop-color="#1d4ed8"/>
      <stop offset="100%" stop-color="#7c3aed"/>
    </linearGradient>
    <filter id="shadow" x="-20%" y="-20%" width="140%" height="140%">
      <feDropShadow dx="0" dy="18" stdDeviation="28" flood-color="#020617" flood-opacity="0.34"/>
    </filter>
  </defs>
  <rect width="1600" height="900" fill="url(#bg)"/>
  <g opacity="0.15" fill="#c4b5fd">
    <circle cx="210" cy="170" r="105"/>
    <circle cx="1350" cy="170" r="120"/>
    <circle cx="1300" cy="730" r="110"/>
  </g>
  <g filter="url(#shadow)">
    <rect x="160" y="120" width="1280" height="660" rx="44" fill="#f8fafc" opacity="0.96"/>
  </g>
  <g stroke="#7c3aed" stroke-width="24" fill="none" stroke-linecap="round" stroke-linejoin="round">
    <path d="M420 350c60-70 160-110 260-110s200 40 260 110"/>
    <path d="M420 550c60 70 160 110 260 110s200-40 260-110"/>
  </g>
  <g fill="#e9d5ff">
    <circle cx="420" cy="450" r="86"/>
    <circle cx="680" cy="280" r="78"/>
    <circle cx="920" cy="280" r="78"/>
    <circle cx="1180" cy="450" r="86"/>
    <circle cx="680" cy="620" r="78"/>
    <circle cx="920" cy="620" r="78"/>
  </g>
  <g fill="#4c1d95">
    <rect x="378" y="428" width="84" height="44" rx="22"/>
    <rect x="638" y="258" width="84" height="44" rx="22"/>
    <rect x="878" y="258" width="84" height="44" rx="22"/>
    <rect x="1138" y="428" width="84" height="44" rx="22"/>
    <rect x="638" y="598" width="84" height="44" rx="22"/>
    <rect x="878" y="598" width="84" height="44" rx="22"/>
  </g>
</svg>
