<svg xmlns="http://www.w3.org/2000/svg" viewBox="0 0 1600 900" role="img" aria-labelledby="title desc">
  <title id="title">ABC4RD preview</title>
  <desc id="desc">Text-free thematic preview image.</desc>
  <defs>
    <linearGradient id="bg" x1="0" y1="0" x2="1" y2="1">
      <stop offset="0%" stop-color="#3b0764"/>
      <stop offset="55%" stop-color="#1d4ed8"/>
      <stop offset="100%" stop-color="#0f766e"/>
    </linearGradient>
    <filter id="shadow" x="-20%" y="-20%" width="140%" height="140%">
      <feDropShadow dx="0" dy="18" stdDeviation="28" flood-color="#020617" flood-opacity="0.35"/>
    </filter>
  </defs>
  <rect width="1600" height="900" fill="url(#bg)"/>
  <g opacity="0.12" fill="#e9d5ff">
    <circle cx="240" cy="160" r="108"/>
    <circle cx="1360" cy="180" r="118"/>
    <circle cx="1310" cy="740" r="116"/>
  </g>
  <g filter="url(#shadow)">
    <rect x="180" y="120" width="1240" height="660" rx="44" fill="#f8fafc" opacity="0.96"/>
  </g>
  <g fill="#1d4ed8">
    <rect x="420" y="500" width="180" height="150" rx="24"/>
    <rect x="710" y="390" width="180" height="260" rx="24"/>
    <rect x="1000" y="450" width="180" height="200" rx="24"/>
  </g>
  <g fill="#99f6e4">
    <circle cx="510" cy="460" r="52"/>
    <circle cx="800" cy="350" r="52"/>
    <circle cx="1090" cy="410" r="52"/>
  </g>
  <g stroke="#f59e0b" stroke-width="18" fill="none" stroke-linecap="round">
    <path d="M510 460 800 350 1090 410"/>
    <path d="M510 715 1090 715"/>
  </g>
  <g fill="#4c1d95">
    <rect x="600" y="235" width="400" height="24" rx="12"/>
    <rect x="650" y="285" width="300" height="24" rx="12"/>
  </g>
</svg>
