<svg xmlns="http://www.w3.org/2000/svg" viewBox="0 0 1600 900" role="img" aria-labelledby="title desc">
  <title id="title">ABC4RD preview</title>
  <desc id="desc">Text-free thematic preview image.</desc>
  <defs>
    <linearGradient id="bg" x1="0" y1="0" x2="1" y2="1">
      <stop offset="0%" stop-color="#0f172a"/>
      <stop offset="48%" stop-color="#1d4ed8"/>
      <stop offset="100%" stop-color="#0f766e"/>
    </linearGradient>
    <filter id="shadow" x="-20%" y="-20%" width="140%" height="140%">
      <feDropShadow dx="0" dy="18" stdDeviation="28" flood-color="#020617" flood-opacity="0.34"/>
    </filter>
  </defs>
  <rect width="1600" height="900" fill="url(#bg)"/>
  <g opacity="0.12" fill="#93c5fd">
    <circle cx="220" cy="170" r="104"/>
    <circle cx="1360" cy="180" r="118"/>
    <circle cx="1320" cy="740" r="114"/>
  </g>
  <g filter="url(#shadow)">
    <rect x="170" y="120" width="1260" height="660" rx="44" fill="#f8fafc" opacity="0.96"/>
  </g>
  <g fill="#1d4ed8">
    <rect x="340" y="230" width="260" height="120" rx="24"/>
    <rect x="670" y="230" width="260" height="120" rx="24"/>
    <rect x="1000" y="230" width="260" height="120" rx="24"/>
    <rect x="430" y="430" width="260" height="120" rx="24"/>
    <rect x="910" y="430" width="260" height="120" rx="24"/>
  </g>
  <g stroke="#0f766e" stroke-width="18" fill="none" stroke-linecap="round">
    <path d="M600 290H670"/>
    <path d="M930 290H1000"/>
    <path d="M560 550H910"/>
    <path d="M800 350V430"/>
  </g>
  <g fill="#f59e0b">
    <circle cx="800" cy="390" r="24"/>
    <circle cx="800" cy="550" r="24"/>
  </g>
</svg>
