<svg xmlns="http://www.w3.org/2000/svg" viewBox="0 0 1600 900" role="img" aria-labelledby="title desc">
  <title id="title">ABC4RD preview</title>
  <desc id="desc">Text-free thematic preview image.</desc>
  <defs>
    <linearGradient id="bg" x1="0" y1="0" x2="1" y2="1">
      <stop offset="0%" stop-color="#0f172a"/>
      <stop offset="50%" stop-color="#0f766e"/>
      <stop offset="100%" stop-color="#f59e0b"/>
    </linearGradient>
    <filter id="shadow" x="-20%" y="-20%" width="140%" height="140%">
      <feDropShadow dx="0" dy="18" stdDeviation="28" flood-color="#020617" flood-opacity="0.34"/>
    </filter>
  </defs>
  <rect width="1600" height="900" fill="url(#bg)"/>
  <g opacity="0.14" fill="#fef3c7">
    <circle cx="210" cy="170" r="104"/>
    <circle cx="1360" cy="170" r="118"/>
    <circle cx="1320" cy="740" r="114"/>
  </g>
  <g filter="url(#shadow)">
    <rect x="170" y="120" width="1260" height="660" rx="44" fill="#f8fafc" opacity="0.96"/>
  </g>
  <g fill="#0f766e">
    <rect x="350" y="240" width="220" height="140" rx="24"/>
    <rect x="690" y="220" width="220" height="180" rx="24"/>
    <rect x="1030" y="250" width="220" height="130" rx="24"/>
    <rect x="460" y="500" width="220" height="150" rx="24"/>
    <rect x="805" y="470" width="220" height="180" rx="24"/>
  </g>
  <g stroke="#f59e0b" stroke-width="18" fill="none" stroke-linecap="round">
    <path d="M570 310 690 310"/>
    <path d="M910 310 1030 310"/>
    <path d="M570 560 805 560"/>
    <path d="M800 400 800 470"/>
  </g>
  <g fill="#1f2937">
    <rect x="400" y="715" width="800" height="24" rx="12"/>
    <rect x="520" y="665" width="560" height="24" rx="12"/>
  </g>
</svg>
