<svg xmlns="http://www.w3.org/2000/svg" viewBox="0 0 1600 900" role="img" aria-labelledby="title desc">
  <title id="title">ABC4RD preview</title>
  <desc id="desc">Text-free thematic preview image.</desc>
  <defs>
    <linearGradient id="bg" x1="0" y1="0" x2="1" y2="1">
      <stop offset="0%" stop-color="#111827"/>
      <stop offset="52%" stop-color="#0f766e"/>
      <stop offset="100%" stop-color="#f59e0b"/>
    </linearGradient>
    <filter id="shadow" x="-20%" y="-20%" width="140%" height="140%">
      <feDropShadow dx="0" dy="18" stdDeviation="28" flood-color="#020617" flood-opacity="0.34"/>
    </filter>
  </defs>
  <rect width="1600" height="900" fill="url(#bg)"/>
  <g opacity="0.12" fill="#fde68a">
    <circle cx="220" cy="170" r="104"/>
    <circle cx="1360" cy="180" r="118"/>
    <circle cx="1310" cy="740" r="112"/>
  </g>
  <g filter="url(#shadow)">
    <rect x="180" y="120" width="1240" height="660" rx="44" fill="#f8fafc" opacity="0.96"/>
  </g>
  <g fill="#0f766e">
    <rect x="360" y="230" width="880" height="90" rx="22"/>
    <rect x="360" y="370" width="880" height="90" rx="22"/>
    <rect x="360" y="510" width="880" height="90" rx="22"/>
  </g>
  <g fill="#1f2937">
    <circle cx="420" cy="275" r="24"/>
    <circle cx="420" cy="415" r="24"/>
    <circle cx="420" cy="555" r="24"/>
  </g>
  <g stroke="#f59e0b" stroke-width="16" fill="none" stroke-linecap="round">
    <path d="M480 275H1140"/>
    <path d="M480 415H1140"/>
    <path d="M480 555H1140"/>
  </g>
  <g fill="#1d4ed8">
    <rect x="670" y="680" width="260" height="28" rx="14"/>
  </g>
</svg>
